<mxfile host="app.diagrams.net" modified="2023-04-08T10:20:41.032Z" agent="Mozilla/5.0 (X11; Linux x86_64; rv:109.0) Gecko/20100101 Firefox/111.0" etag="4EjJ7AdeEcGq1P7SM4J9" version="21.1.5">
  <diagram name="Page-1" id="pohQMjna0zDWjvu9L9F3">
    <mxGraphModel dx="2074" dy="1150" grid="1" gridSize="10" guides="1" tooltips="1" connect="1" arrows="1" fold="1" page="1" pageScale="1" pageWidth="850" pageHeight="1100" math="0" shadow="0">
      <root>
        <mxCell id="0" />
        <mxCell id="1" parent="0" />
        <mxCell id="lo5BpxJ7yhz9kmaWmP0I-1" value="Usuario" style="shape=umlActor;verticalLabelPosition=bottom;verticalAlign=top;html=1;outlineConnect=0;" parent="1" vertex="1">
          <mxGeometry x="100" y="125" width="30" height="60" as="geometry" />
        </mxCell>
        <mxCell id="lo5BpxJ7yhz9kmaWmP0I-3" value="Administrador" style="shape=umlActor;verticalLabelPosition=bottom;verticalAlign=top;html=1;outlineConnect=0;" parent="1" vertex="1">
          <mxGeometry x="100" y="440" width="30" height="60" as="geometry" />
        </mxCell>
        <mxCell id="eT2-3RWRc-UAUvi5LU9W-1" value="" style="rounded=0;whiteSpace=wrap;html=1;fillColor=none;strokeColor=default;" parent="1" vertex="1">
          <mxGeometry x="190" y="80" width="280" height="720" as="geometry" />
        </mxCell>
        <mxCell id="eT2-3RWRc-UAUvi5LU9W-2" value="Obtener Predicci칩n" style="ellipse;whiteSpace=wrap;html=1;" parent="1" vertex="1">
          <mxGeometry x="260" y="120" width="140" height="70" as="geometry" />
        </mxCell>
        <mxCell id="eT2-3RWRc-UAUvi5LU9W-3" value="" style="endArrow=none;html=1;rounded=0;" parent="1" source="lo5BpxJ7yhz9kmaWmP0I-1" target="eT2-3RWRc-UAUvi5LU9W-2" edge="1">
          <mxGeometry width="50" height="50" relative="1" as="geometry">
            <mxPoint x="360" y="440" as="sourcePoint" />
            <mxPoint x="410" y="390" as="targetPoint" />
          </mxGeometry>
        </mxCell>
        <mxCell id="eT2-3RWRc-UAUvi5LU9W-4" value="&lt;div&gt;Iniciar sesi칩n&lt;/div&gt;" style="ellipse;whiteSpace=wrap;html=1;" parent="1" vertex="1">
          <mxGeometry x="260" y="230" width="140" height="70" as="geometry" />
        </mxCell>
        <mxCell id="eT2-3RWRc-UAUvi5LU9W-6" value="&lt;div&gt;Seleccionar modelo&lt;/div&gt;" style="ellipse;whiteSpace=wrap;html=1;" parent="1" vertex="1">
          <mxGeometry x="260" y="500" width="140" height="70" as="geometry" />
        </mxCell>
        <mxCell id="eT2-3RWRc-UAUvi5LU9W-7" value="&lt;div&gt;A침adir modelo&lt;/div&gt;" style="ellipse;whiteSpace=wrap;html=1;" parent="1" vertex="1">
          <mxGeometry x="260" y="590" width="140" height="70" as="geometry" />
        </mxCell>
        <mxCell id="eT2-3RWRc-UAUvi5LU9W-8" value="Eliminar modelo" style="ellipse;whiteSpace=wrap;html=1;" parent="1" vertex="1">
          <mxGeometry x="260" y="680" width="140" height="70" as="geometry" />
        </mxCell>
        <mxCell id="eT2-3RWRc-UAUvi5LU9W-9" value="" style="endArrow=none;html=1;rounded=0;" parent="1" source="lo5BpxJ7yhz9kmaWmP0I-3" target="eT2-3RWRc-UAUvi5LU9W-7" edge="1">
          <mxGeometry width="50" height="50" relative="1" as="geometry">
            <mxPoint x="360" y="440" as="sourcePoint" />
            <mxPoint x="410" y="390" as="targetPoint" />
          </mxGeometry>
        </mxCell>
        <mxCell id="eT2-3RWRc-UAUvi5LU9W-10" value="" style="endArrow=none;html=1;rounded=0;" parent="1" source="lo5BpxJ7yhz9kmaWmP0I-3" target="eT2-3RWRc-UAUvi5LU9W-6" edge="1">
          <mxGeometry width="50" height="50" relative="1" as="geometry">
            <mxPoint x="360" y="440" as="sourcePoint" />
            <mxPoint x="410" y="390" as="targetPoint" />
          </mxGeometry>
        </mxCell>
        <mxCell id="eT2-3RWRc-UAUvi5LU9W-11" value="" style="endArrow=none;html=1;rounded=0;" parent="1" source="lo5BpxJ7yhz9kmaWmP0I-3" target="eT2-3RWRc-UAUvi5LU9W-4" edge="1">
          <mxGeometry width="50" height="50" relative="1" as="geometry">
            <mxPoint x="360" y="440" as="sourcePoint" />
            <mxPoint x="410" y="390" as="targetPoint" />
          </mxGeometry>
        </mxCell>
        <mxCell id="eT2-3RWRc-UAUvi5LU9W-12" value="" style="endArrow=none;html=1;rounded=0;" parent="1" source="lo5BpxJ7yhz9kmaWmP0I-3" target="eT2-3RWRc-UAUvi5LU9W-8" edge="1">
          <mxGeometry width="50" height="50" relative="1" as="geometry">
            <mxPoint x="360" y="440" as="sourcePoint" />
            <mxPoint x="410" y="390" as="targetPoint" />
          </mxGeometry>
        </mxCell>
        <mxCell id="eT2-3RWRc-UAUvi5LU9W-14" value="Extends" style="endArrow=block;endSize=16;endFill=0;html=1;rounded=0;" parent="1" edge="1">
          <mxGeometry width="160" relative="1" as="geometry">
            <mxPoint x="115" y="430" as="sourcePoint" />
            <mxPoint x="115" y="210" as="targetPoint" />
          </mxGeometry>
        </mxCell>
        <mxCell id="UO8MSnUFzsCFQLYwDnzZ-1" value="Finalizar sesi칩n" style="ellipse;whiteSpace=wrap;html=1;" vertex="1" parent="1">
          <mxGeometry x="260" y="320" width="140" height="70" as="geometry" />
        </mxCell>
        <mxCell id="UO8MSnUFzsCFQLYwDnzZ-2" value="" style="edgeStyle=none;html=1;endArrow=none;verticalAlign=bottom;rounded=0;" edge="1" parent="1" source="lo5BpxJ7yhz9kmaWmP0I-3" target="UO8MSnUFzsCFQLYwDnzZ-1">
          <mxGeometry width="160" relative="1" as="geometry">
            <mxPoint x="340" y="590" as="sourcePoint" />
            <mxPoint x="500" y="590" as="targetPoint" />
          </mxGeometry>
        </mxCell>
        <mxCell id="UO8MSnUFzsCFQLYwDnzZ-3" value="Ver lista de modelos" style="ellipse;whiteSpace=wrap;html=1;" vertex="1" parent="1">
          <mxGeometry x="260" y="410" width="140" height="70" as="geometry" />
        </mxCell>
        <mxCell id="UO8MSnUFzsCFQLYwDnzZ-4" value="" style="edgeStyle=none;html=1;endArrow=none;verticalAlign=bottom;rounded=0;" edge="1" parent="1" source="lo5BpxJ7yhz9kmaWmP0I-3" target="UO8MSnUFzsCFQLYwDnzZ-3">
          <mxGeometry width="160" relative="1" as="geometry">
            <mxPoint x="670" y="450" as="sourcePoint" />
            <mxPoint x="830" y="450" as="targetPoint" />
          </mxGeometry>
        </mxCell>
      </root>
    </mxGraphModel>
  </diagram>
</mxfile>
